<mxfile host="app.diagrams.net" agent="Mozilla/5.0 (Windows NT 10.0; Win64; x64) AppleWebKit/537.36 (KHTML, like Gecko) Chrome/140.0.0.0 Safari/537.36" version="28.2.5">
  <diagram id="C5RBs43oDa-KdzZeNtuy" name="Page-1">
    <mxGraphModel grid="1" page="1" gridSize="11" guides="1" tooltips="1" connect="1" arrows="1" fold="1" pageScale="1" pageWidth="827" pageHeight="1169" math="0" shadow="0">
      <root>
        <mxCell id="WIyWlLk6GJQsqaUBKTNV-0" />
        <mxCell id="WIyWlLk6GJQsqaUBKTNV-1" parent="WIyWlLk6GJQsqaUBKTNV-0" />
        <mxCell id="FJs2IsX_IAVPDREQglW6-9" value="" style="rounded=1;whiteSpace=wrap;html=1;" vertex="1" parent="WIyWlLk6GJQsqaUBKTNV-1">
          <mxGeometry x="227" y="200" width="486" height="339" as="geometry" />
        </mxCell>
        <mxCell id="WIyWlLk6GJQsqaUBKTNV-7" value="" style="rounded=1;whiteSpace=wrap;html=1;fontSize=12;glass=0;strokeWidth=1;shadow=0;" vertex="1" parent="WIyWlLk6GJQsqaUBKTNV-1">
          <mxGeometry x="262" y="11" width="400" height="148" as="geometry" />
        </mxCell>
        <mxCell id="WIyWlLk6GJQsqaUBKTNV-12" value="Orchestrator service AKS hosted" style="rounded=1;whiteSpace=wrap;html=1;fontSize=12;glass=0;strokeWidth=1;shadow=0;" vertex="1" parent="WIyWlLk6GJQsqaUBKTNV-1">
          <mxGeometry x="294" y="320" width="120" height="40" as="geometry" />
        </mxCell>
        <mxCell id="FJs2IsX_IAVPDREQglW6-15" value="" style="edgeStyle=orthogonalEdgeStyle;rounded=0;orthogonalLoop=1;jettySize=auto;html=1;" edge="1" parent="WIyWlLk6GJQsqaUBKTNV-1" source="ZZRqX1T7qgezjlXLAi40-0" target="ZZRqX1T7qgezjlXLAi40-4">
          <mxGeometry relative="1" as="geometry" />
        </mxCell>
        <mxCell id="ZZRqX1T7qgezjlXLAi40-0" value="" style="image;aspect=fixed;html=1;points=[];align=center;fontSize=12;image=img/lib/azure2/integration/System_Topic.svg;" vertex="1" parent="WIyWlLk6GJQsqaUBKTNV-1">
          <mxGeometry x="30" y="285" width="56.67" height="50" as="geometry" />
        </mxCell>
        <mxCell id="ZZRqX1T7qgezjlXLAi40-1" value="Operations Hub&lt;div&gt;Event Hub&lt;/div&gt;" style="text;html=1;align=center;verticalAlign=middle;resizable=0;points=[];autosize=1;strokeColor=none;fillColor=none;" vertex="1" parent="WIyWlLk6GJQsqaUBKTNV-1">
          <mxGeometry x="3.34" y="330" width="110" height="40" as="geometry" />
        </mxCell>
        <mxCell id="ZZRqX1T7qgezjlXLAi40-2" value="" style="image;aspect=fixed;html=1;points=[];align=center;fontSize=12;image=img/lib/azure2/databases/Azure_Cosmos_DB.svg;" vertex="1" parent="WIyWlLk6GJQsqaUBKTNV-1">
          <mxGeometry x="314" y="451" width="64" height="64" as="geometry" />
        </mxCell>
        <mxCell id="FJs2IsX_IAVPDREQglW6-12" value="" style="edgeStyle=orthogonalEdgeStyle;rounded=0;orthogonalLoop=1;jettySize=auto;html=1;" edge="1" parent="WIyWlLk6GJQsqaUBKTNV-1" source="ZZRqX1T7qgezjlXLAi40-3" target="ZZRqX1T7qgezjlXLAi40-11">
          <mxGeometry relative="1" as="geometry">
            <Array as="points">
              <mxPoint x="410" y="280" />
              <mxPoint x="410" y="280" />
            </Array>
          </mxGeometry>
        </mxCell>
        <mxCell id="ZZRqX1T7qgezjlXLAi40-3" value="" style="image;aspect=fixed;html=1;points=[];align=center;fontSize=12;image=img/lib/azure2/containers/Kubernetes_Services.svg;" vertex="1" parent="WIyWlLk6GJQsqaUBKTNV-1">
          <mxGeometry x="330" y="242" width="68" height="60" as="geometry" />
        </mxCell>
        <mxCell id="FJs2IsX_IAVPDREQglW6-14" value="" style="edgeStyle=orthogonalEdgeStyle;rounded=0;orthogonalLoop=1;jettySize=auto;html=1;" edge="1" parent="WIyWlLk6GJQsqaUBKTNV-1" source="ZZRqX1T7qgezjlXLAi40-4" target="WIyWlLk6GJQsqaUBKTNV-12">
          <mxGeometry relative="1" as="geometry" />
        </mxCell>
        <mxCell id="FJs2IsX_IAVPDREQglW6-17" value="" style="edgeStyle=orthogonalEdgeStyle;rounded=0;orthogonalLoop=1;jettySize=auto;html=1;" edge="1" parent="WIyWlLk6GJQsqaUBKTNV-1" source="ZZRqX1T7qgezjlXLAi40-4" target="ZZRqX1T7qgezjlXLAi40-9">
          <mxGeometry relative="1" as="geometry">
            <Array as="points">
              <mxPoint x="180" y="270" />
              <mxPoint x="180" y="270" />
            </Array>
          </mxGeometry>
        </mxCell>
        <mxCell id="FJs2IsX_IAVPDREQglW6-36" style="edgeStyle=orthogonalEdgeStyle;rounded=0;orthogonalLoop=1;jettySize=auto;html=1;" edge="1" parent="WIyWlLk6GJQsqaUBKTNV-1" target="FJs2IsX_IAVPDREQglW6-28">
          <mxGeometry relative="1" as="geometry">
            <mxPoint x="180" y="407" as="sourcePoint" />
            <Array as="points">
              <mxPoint x="180" y="638" />
            </Array>
          </mxGeometry>
        </mxCell>
        <mxCell id="ZZRqX1T7qgezjlXLAi40-4" value="" style="image;aspect=fixed;html=1;points=[];align=center;fontSize=12;image=img/lib/azure2/containers/App_Services.svg;" vertex="1" parent="WIyWlLk6GJQsqaUBKTNV-1">
          <mxGeometry x="150" y="280" width="60" height="60" as="geometry" />
        </mxCell>
        <mxCell id="ZZRqX1T7qgezjlXLAi40-8" value="Flight Event&lt;div&gt;Consumer App&lt;/div&gt;" style="text;html=1;align=center;verticalAlign=middle;whiteSpace=wrap;rounded=0;" vertex="1" parent="WIyWlLk6GJQsqaUBKTNV-1">
          <mxGeometry x="150" y="360" width="60" height="30" as="geometry" />
        </mxCell>
        <mxCell id="FJs2IsX_IAVPDREQglW6-16" value="" style="edgeStyle=orthogonalEdgeStyle;rounded=0;orthogonalLoop=1;jettySize=auto;html=1;" edge="1" parent="WIyWlLk6GJQsqaUBKTNV-1" source="ZZRqX1T7qgezjlXLAi40-9" target="ZZRqX1T7qgezjlXLAi40-3">
          <mxGeometry relative="1" as="geometry" />
        </mxCell>
        <mxCell id="ZZRqX1T7qgezjlXLAi40-9" value="" style="image;aspect=fixed;html=1;points=[];align=center;fontSize=12;image=img/lib/azure2/general/Service_Health.svg;" vertex="1" parent="WIyWlLk6GJQsqaUBKTNV-1">
          <mxGeometry x="146" y="180" width="68" height="64" as="geometry" />
        </mxCell>
        <mxCell id="FJs2IsX_IAVPDREQglW6-13" value="" style="edgeStyle=orthogonalEdgeStyle;rounded=0;orthogonalLoop=1;jettySize=auto;html=1;" edge="1" parent="WIyWlLk6GJQsqaUBKTNV-1" source="ZZRqX1T7qgezjlXLAi40-11" target="FJs2IsX_IAVPDREQglW6-11">
          <mxGeometry relative="1" as="geometry">
            <Array as="points">
              <mxPoint x="580" y="290" />
              <mxPoint x="580" y="290" />
            </Array>
          </mxGeometry>
        </mxCell>
        <mxCell id="ZZRqX1T7qgezjlXLAi40-11" value="" style="image;aspect=fixed;html=1;points=[];align=center;fontSize=12;image=img/lib/azure2/integration/Service_Bus.svg;" vertex="1" parent="WIyWlLk6GJQsqaUBKTNV-1">
          <mxGeometry x="486" y="250" width="68" height="60" as="geometry" />
        </mxCell>
        <mxCell id="YI0b97y2UE2jJvl970QB-4" value="" style="edgeStyle=orthogonalEdgeStyle;rounded=0;orthogonalLoop=1;jettySize=auto;html=1;" edge="1" parent="WIyWlLk6GJQsqaUBKTNV-1" source="ZZRqX1T7qgezjlXLAi40-12" target="YI0b97y2UE2jJvl970QB-2">
          <mxGeometry relative="1" as="geometry" />
        </mxCell>
        <mxCell id="ZZRqX1T7qgezjlXLAi40-12" value="" style="image;aspect=fixed;html=1;points=[];align=center;fontSize=12;image=img/lib/azure2/app_services/Notification_Hubs.svg;" vertex="1" parent="WIyWlLk6GJQsqaUBKTNV-1">
          <mxGeometry x="750" y="262" width="67" height="56.00000000000001" as="geometry" />
        </mxCell>
        <mxCell id="FJs2IsX_IAVPDREQglW6-1" value="" style="image;aspect=fixed;html=1;points=[];align=center;fontSize=12;image=img/lib/azure2/compute/App_Services.svg;direction=south;" vertex="1" parent="WIyWlLk6GJQsqaUBKTNV-1">
          <mxGeometry x="484" y="53" width="64" height="64" as="geometry" />
        </mxCell>
        <mxCell id="FJs2IsX_IAVPDREQglW6-2" value="" style="image;aspect=fixed;html=1;points=[];align=center;fontSize=12;image=img/lib/azure2/compute/App_Services.svg;" vertex="1" parent="WIyWlLk6GJQsqaUBKTNV-1">
          <mxGeometry x="322" y="56" width="64" height="64" as="geometry" />
        </mxCell>
        <mxCell id="FJs2IsX_IAVPDREQglW6-25" value="" style="edgeStyle=orthogonalEdgeStyle;rounded=0;orthogonalLoop=1;jettySize=auto;html=1;" edge="1" parent="WIyWlLk6GJQsqaUBKTNV-1" target="FJs2IsX_IAVPDREQglW6-24">
          <mxGeometry relative="1" as="geometry">
            <mxPoint x="524" y="374" as="sourcePoint" />
          </mxGeometry>
        </mxCell>
        <mxCell id="FJs2IsX_IAVPDREQglW6-3" value="Notify Queue&lt;div&gt;Service Bus&lt;/div&gt;" style="text;html=1;align=center;verticalAlign=middle;whiteSpace=wrap;rounded=0;" vertex="1" parent="WIyWlLk6GJQsqaUBKTNV-1">
          <mxGeometry x="494" y="330" width="60" height="30" as="geometry" />
        </mxCell>
        <mxCell id="FJs2IsX_IAVPDREQglW6-5" value="PassengersCheckin" style="text;html=1;align=center;verticalAlign=middle;whiteSpace=wrap;rounded=0;" vertex="1" parent="WIyWlLk6GJQsqaUBKTNV-1">
          <mxGeometry x="484" y="117" width="60" height="30" as="geometry" />
        </mxCell>
        <mxCell id="FJs2IsX_IAVPDREQglW6-6" value="FlightAvailability" style="text;html=1;align=center;verticalAlign=middle;whiteSpace=wrap;rounded=0;" vertex="1" parent="WIyWlLk6GJQsqaUBKTNV-1">
          <mxGeometry x="282" y="120" width="120" height="30" as="geometry" />
        </mxCell>
        <mxCell id="FJs2IsX_IAVPDREQglW6-8" value="SABRE" style="text;html=1;align=center;verticalAlign=middle;whiteSpace=wrap;rounded=0;" vertex="1" parent="WIyWlLk6GJQsqaUBKTNV-1">
          <mxGeometry x="434" y="22" width="60" height="30" as="geometry" />
        </mxCell>
        <mxCell id="FJs2IsX_IAVPDREQglW6-19" value="" style="edgeStyle=orthogonalEdgeStyle;rounded=0;orthogonalLoop=1;jettySize=auto;html=1;" edge="1" parent="WIyWlLk6GJQsqaUBKTNV-1" source="FJs2IsX_IAVPDREQglW6-11" target="ZZRqX1T7qgezjlXLAi40-12">
          <mxGeometry relative="1" as="geometry" />
        </mxCell>
        <mxCell id="FJs2IsX_IAVPDREQglW6-11" value="" style="image;aspect=fixed;html=1;points=[];align=center;fontSize=12;image=img/lib/azure2/compute/Function_Apps.svg;" vertex="1" parent="WIyWlLk6GJQsqaUBKTNV-1">
          <mxGeometry x="620" y="260" width="68" height="60" as="geometry" />
        </mxCell>
        <mxCell id="FJs2IsX_IAVPDREQglW6-18" value="Service Health check" style="text;html=1;align=center;verticalAlign=middle;whiteSpace=wrap;rounded=0;" vertex="1" parent="WIyWlLk6GJQsqaUBKTNV-1">
          <mxGeometry x="150" y="120" width="60" height="30" as="geometry" />
        </mxCell>
        <mxCell id="FJs2IsX_IAVPDREQglW6-20" value="Worker FA&lt;br&gt;processing notify requests" style="text;html=1;align=center;verticalAlign=middle;whiteSpace=wrap;rounded=0;" vertex="1" parent="WIyWlLk6GJQsqaUBKTNV-1">
          <mxGeometry x="614" y="330" width="60" height="30" as="geometry" />
        </mxCell>
        <mxCell id="FJs2IsX_IAVPDREQglW6-21" value="Notification Hub" style="text;html=1;align=center;verticalAlign=middle;whiteSpace=wrap;rounded=0;" vertex="1" parent="WIyWlLk6GJQsqaUBKTNV-1">
          <mxGeometry x="750" y="330" width="60" height="30" as="geometry" />
        </mxCell>
        <mxCell id="FJs2IsX_IAVPDREQglW6-24" value="Function app&lt;div&gt;to write to Data Lake&lt;/div&gt;" style="image;aspect=fixed;html=1;points=[];align=center;fontSize=12;image=img/lib/azure2/compute/Function_Apps.svg;" vertex="1" parent="WIyWlLk6GJQsqaUBKTNV-1">
          <mxGeometry x="490" y="442" width="68" height="60" as="geometry" />
        </mxCell>
        <mxCell id="YI0b97y2UE2jJvl970QB-5" style="edgeStyle=orthogonalEdgeStyle;rounded=0;orthogonalLoop=1;jettySize=auto;html=1;" edge="1" parent="WIyWlLk6GJQsqaUBKTNV-1" source="FJs2IsX_IAVPDREQglW6-27">
          <mxGeometry relative="1" as="geometry">
            <mxPoint x="935" y="352" as="targetPoint" />
          </mxGeometry>
        </mxCell>
        <mxCell id="FJs2IsX_IAVPDREQglW6-27" value="" style="shape=cylinder3;whiteSpace=wrap;html=1;boundedLbl=1;backgroundOutline=1;size=15;" vertex="1" parent="WIyWlLk6GJQsqaUBKTNV-1">
          <mxGeometry x="572" y="616" width="60" height="80" as="geometry" />
        </mxCell>
        <mxCell id="FJs2IsX_IAVPDREQglW6-28" value="Azure Keyvault" style="image;aspect=fixed;html=1;points=[];align=center;fontSize=12;image=img/lib/azure2/security/Key_Vaults.svg;" vertex="1" parent="WIyWlLk6GJQsqaUBKTNV-1">
          <mxGeometry x="227" y="616" width="68" height="68" as="geometry" />
        </mxCell>
        <mxCell id="FJs2IsX_IAVPDREQglW6-29" value="" style="image;aspect=fixed;html=1;points=[];align=center;fontSize=12;image=img/lib/azure2/devops/Application_Insights.svg;" vertex="1" parent="WIyWlLk6GJQsqaUBKTNV-1">
          <mxGeometry x="388" y="616" width="44" height="63" as="geometry" />
        </mxCell>
        <mxCell id="FJs2IsX_IAVPDREQglW6-30" value="" style="image;aspect=fixed;html=1;points=[];align=center;fontSize=12;image=img/lib/azure2/analytics/Log_Analytics_Workspaces.svg;" vertex="1" parent="WIyWlLk6GJQsqaUBKTNV-1">
          <mxGeometry x="384" y="704" width="66" height="66" as="geometry" />
        </mxCell>
        <mxCell id="YI0b97y2UE2jJvl970QB-6" value="" style="edgeStyle=orthogonalEdgeStyle;rounded=0;orthogonalLoop=1;jettySize=auto;html=1;" edge="1" parent="WIyWlLk6GJQsqaUBKTNV-1" target="FJs2IsX_IAVPDREQglW6-27">
          <mxGeometry relative="1" as="geometry">
            <mxPoint x="602" y="737" as="sourcePoint" />
          </mxGeometry>
        </mxCell>
        <mxCell id="FJs2IsX_IAVPDREQglW6-33" value="Data Lake and failed queue list for permanent records&lt;div&gt;&lt;br&gt;&lt;div&gt;&lt;br&gt;&lt;/div&gt;&lt;/div&gt;" style="text;html=1;align=center;verticalAlign=middle;whiteSpace=wrap;rounded=0;" vertex="1" parent="WIyWlLk6GJQsqaUBKTNV-1">
          <mxGeometry x="547" y="759" width="110" height="30" as="geometry" />
        </mxCell>
        <mxCell id="FJs2IsX_IAVPDREQglW6-34" value="" style="endArrow=classic;startArrow=classic;html=1;rounded=0;exitX=0.445;exitY=0.067;exitDx=0;exitDy=0;exitPerimeter=0;entryX=0.37;entryY=0.989;entryDx=0;entryDy=0;entryPerimeter=0;" edge="1" parent="WIyWlLk6GJQsqaUBKTNV-1" source="FJs2IsX_IAVPDREQglW6-29" target="FJs2IsX_IAVPDREQglW6-9">
          <mxGeometry width="50" height="50" relative="1" as="geometry">
            <mxPoint x="385" y="512" as="sourcePoint" />
            <mxPoint x="435" y="462" as="targetPoint" />
          </mxGeometry>
        </mxCell>
        <mxCell id="FJs2IsX_IAVPDREQglW6-35" value="" style="endArrow=classic;startArrow=classic;html=1;rounded=0;exitX=0.506;exitY=0.003;exitDx=0;exitDy=0;exitPerimeter=0;entryX=0.076;entryY=1;entryDx=0;entryDy=0;entryPerimeter=0;" edge="1" parent="WIyWlLk6GJQsqaUBKTNV-1" source="FJs2IsX_IAVPDREQglW6-28" target="FJs2IsX_IAVPDREQglW6-9">
          <mxGeometry width="50" height="50" relative="1" as="geometry">
            <mxPoint x="385" y="512" as="sourcePoint" />
            <mxPoint x="435" y="462" as="targetPoint" />
            <Array as="points" />
          </mxGeometry>
        </mxCell>
        <mxCell id="FJs2IsX_IAVPDREQglW6-39" value="Cache in Cosmos" style="text;html=1;align=center;verticalAlign=middle;whiteSpace=wrap;rounded=0;" vertex="1" parent="WIyWlLk6GJQsqaUBKTNV-1">
          <mxGeometry x="314" y="504" width="60" height="30" as="geometry" />
        </mxCell>
        <mxCell id="FJs2IsX_IAVPDREQglW6-41" value="" style="endArrow=classic;startArrow=classic;html=1;rounded=0;entryX=0.447;entryY=1.005;entryDx=0;entryDy=0;entryPerimeter=0;" edge="1" parent="WIyWlLk6GJQsqaUBKTNV-1" source="ZZRqX1T7qgezjlXLAi40-2" target="WIyWlLk6GJQsqaUBKTNV-12">
          <mxGeometry width="50" height="50" relative="1" as="geometry">
            <mxPoint x="385" y="314" as="sourcePoint" />
            <mxPoint x="435" y="264" as="targetPoint" />
          </mxGeometry>
        </mxCell>
        <mxCell id="FJs2IsX_IAVPDREQglW6-43" value="Monitoring and Alerting" style="text;html=1;align=center;verticalAlign=middle;whiteSpace=wrap;rounded=0;" vertex="1" parent="WIyWlLk6GJQsqaUBKTNV-1">
          <mxGeometry x="384" y="674" width="100" height="30" as="geometry" />
        </mxCell>
        <mxCell id="FJs2IsX_IAVPDREQglW6-44" value="" style="endArrow=classic;html=1;rounded=0;exitX=0.669;exitY=0.999;exitDx=0;exitDy=0;exitPerimeter=0;" edge="1" parent="WIyWlLk6GJQsqaUBKTNV-1" source="FJs2IsX_IAVPDREQglW6-9" target="FJs2IsX_IAVPDREQglW6-27">
          <mxGeometry width="50" height="50" relative="1" as="geometry">
            <mxPoint x="385" y="413" as="sourcePoint" />
            <mxPoint x="435" y="363" as="targetPoint" />
          </mxGeometry>
        </mxCell>
        <mxCell id="z-GPA0hfKTa6Z4AyV379-0" value="" style="endArrow=classic;startArrow=classic;html=1;rounded=0;entryX=0.672;entryY=1.022;entryDx=0;entryDy=0;entryPerimeter=0;" edge="1" parent="WIyWlLk6GJQsqaUBKTNV-1" source="ZZRqX1T7qgezjlXLAi40-3" target="FJs2IsX_IAVPDREQglW6-6">
          <mxGeometry width="50" height="50" relative="1" as="geometry">
            <mxPoint x="385" y="215" as="sourcePoint" />
            <mxPoint x="435" y="165" as="targetPoint" />
          </mxGeometry>
        </mxCell>
        <mxCell id="z-GPA0hfKTa6Z4AyV379-1" value="" style="endArrow=classic;startArrow=classic;html=1;rounded=0;exitX=0.671;exitY=0.063;exitDx=0;exitDy=0;exitPerimeter=0;" edge="1" parent="WIyWlLk6GJQsqaUBKTNV-1" source="ZZRqX1T7qgezjlXLAi40-3" target="FJs2IsX_IAVPDREQglW6-5">
          <mxGeometry width="50" height="50" relative="1" as="geometry">
            <mxPoint x="385" y="215" as="sourcePoint" />
            <mxPoint x="435" y="165" as="targetPoint" />
          </mxGeometry>
        </mxCell>
        <mxCell id="YI0b97y2UE2jJvl970QB-0" value="Flight Status Service" style="image;aspect=fixed;html=1;points=[];align=center;fontSize=12;image=img/lib/azure2/containers/App_Services.svg;" vertex="1" parent="WIyWlLk6GJQsqaUBKTNV-1">
          <mxGeometry x="26.67" y="390" width="60" height="60" as="geometry" />
        </mxCell>
        <mxCell id="YI0b97y2UE2jJvl970QB-1" value="" style="endArrow=classic;startArrow=classic;html=1;rounded=0;" edge="1" parent="WIyWlLk6GJQsqaUBKTNV-1" source="YI0b97y2UE2jJvl970QB-0" target="ZZRqX1T7qgezjlXLAi40-4">
          <mxGeometry width="50" height="50" relative="1" as="geometry">
            <mxPoint x="96" y="394.5" as="sourcePoint" />
            <mxPoint x="146" y="344.5" as="targetPoint" />
          </mxGeometry>
        </mxCell>
        <mxCell id="YI0b97y2UE2jJvl970QB-2" value="Customer Agents" style="shape=umlActor;verticalLabelPosition=bottom;verticalAlign=top;html=1;outlineConnect=0;" vertex="1" parent="WIyWlLk6GJQsqaUBKTNV-1">
          <mxGeometry x="913" y="260" width="30" height="60" as="geometry" />
        </mxCell>
      </root>
    </mxGraphModel>
  </diagram>
</mxfile>
